<svg xmlns="http://www.w3.org/2000/svg" viewBox="0 0 715.79 732.22"><defs><style>.cls-1{fill:#d7bb97;}</style></defs><g id="Layer_2" data-name="Layer 2"><g id="Layer_1-2" data-name="Layer 1"><path class="cls-1" d="M385.55,464.56a28,28,0,0,0,13.71,7.49,27.81,27.81,0,0,0-21.21,21.2,27.78,27.78,0,0,0-21.2-21.2,27.75,27.75,0,0,0,21.2-21.2A28,28,0,0,0,385.55,464.56Z"/><path class="cls-1" d="M385.55,507a28,28,0,0,0,13.71,7.5,27.78,27.78,0,0,0-21.21,21.2,27.75,27.75,0,0,0-21.2-21.2,27.78,27.78,0,0,0,21.2-21.21A28,28,0,0,0,385.55,507Z"/><path class="cls-1" d="M456,112.39c-11.24,24.43-17.2,50.32-15.49,77.31,1.85,29.07,13.8,54.8,24.92,81.24,10.44,24.84,17.4,50,16.25,77.2a157.77,157.77,0,0,1-6.16,37.42c-1.87,6.44-4.34,12.52-6.82,18.75q29.7-58.8,17.64-36.39-1.65,3-3.47,5.92c-1.84,3-3.82,5.85-5.85,8.7-5.18,7.26-8.52,16.82-12.42,24.82s-6.79,17.89-11.92,25.07c6.73-9.44,12.11-19.48,17.27-29.84,8.47-17,17.47-34,24.58-51.61a158.71,158.71,0,0,0,11.57-63.21c-.59-23.94-7.65-46.18-16.91-68.08C479.72,197.34,469.35,175.27,466,151c-3.8-27.25-.26-56.47,11.29-81.57-.31.67,2.82-5.12,1-2.6-2.29,3.21-4,8-5.74,11.39-5.61,11.34-11.27,22.68-16.56,34.17Z"/><path class="cls-1" d="M249.63,179.61c-11.24,24.42-17.2,50.31-15.48,77.31,1.85,29.06,13.79,54.79,24.91,81.23,10.45,24.85,17.41,50,16.25,77.21a157.69,157.69,0,0,1-6.16,37.41c-1.87,6.44-4.34,12.53-6.82,18.75Q292,412.72,280,435.14c-1.11,2-2.26,4-3.48,5.92-1.84,3-3.82,5.85-5.85,8.69-5.18,7.27-8.52,16.82-12.42,24.83s-6.79,17.88-11.91,25.06c6.72-9.43,12.1-19.48,17.26-29.83,8.47-17,17.47-34,24.58-51.62A158.69,158.69,0,0,0,299.73,355c-.59-23.95-7.65-46.19-16.91-68.08-9.45-22.35-19.82-44.42-23.21-68.69-3.8-27.26-.26-56.47,11.29-81.57-.31.67,2.82-5.13,1-2.61-2.28,3.21-4,8-5.74,11.39-5.61,11.34-11.27,22.68-16.56,34.18Z"/><path class="cls-1" d="M427.77,353.92c-1.16,2.72-2.37,5.44-3.6,8.16-.09.21-.21.49-.38.86-7.43,16.48-15.7,32.68-23.92,48.73A191.62,191.62,0,0,1,389.2,430q-3.31,6.81-6.71,13.57l0,0c-.24.4-3.75,6.92-3.75,7.26a566.44,566.44,0,0,1-41.55-81.27c-41.26-100-53.77-211.26-35.2-317.85.41-2.41,2.32-5.16,3.38-7.39q4.2-8.87,8.54-17.67t8.66-17.61c.59-1.16,3.43-5.41,3.74-7.22a570.2,570.2,0,0,0-8.44,90.9c-1.21,107.17,27.89,214.12,83.62,305.64a60.82,60.82,0,0,1,6.71-11.74l1.42-1.86a148.23,148.23,0,0,0,4.93-36.65c.25-29.76-10.18-56.16-22.57-82.72-12.9-27.64-24-55-23.25-86.11.88-36.94,18.23-69,34.51-101.27q-4.85,10.17-14.87,31.66Q397.19,92,405.7,74.11c-.05.1-.08.22-.13.32-.49,1.12-.95,2.26-1.37,3.42-.62,1.59-1.22,3.17-1.8,4.77q-1.83,5.31-3.26,10.74a145.12,145.12,0,0,0-3.66,19.2,143.52,143.52,0,0,0,.83,40.29c4.12,25,15.87,47.3,26.21,70.08,9.76,21.48,17.09,43.45,17.74,67.23A151.7,151.7,0,0,1,427.77,353.92Z"/><path class="cls-1" d="M410.16,64.5c.15.06-3.23,7-3.59,7.82-.28.6-.57,1.19-.87,1.79Q397.21,92,388.35,109.69q10-21.48,14.87-31.66a.58.58,0,0,0,.1-.19q4.29-9,4.49-9A47.52,47.52,0,0,1,410.16,64.5Z"/><path class="cls-1" d="M382.49,443.57s0,.05,0,.08a.1.1,0,0,0,0-.06Z"/><path class="cls-1" d="M334.4,87.19c7.7-2.36,14.35,3.93,12.44,11.76.81-3.33,3.64-7.19,5.13-10.22,2.12-4.33,4.26-8.66,6.26-13l.53-1.16L347.61,97.37a24.64,24.64,0,0,1,20.14-13A23.18,23.18,0,0,0,369.52,81q2.09-4.17,4.12-8.36c1.37-2.8,2.72-5.59,4.06-8.4.2-.42,1.37-3.49,1.61-3.51a24.78,24.78,0,0,0-17.64,9.1c-2.42,3-4,6.67-5.7,10.11-3.06,6.17-6.1,12.34-9,18.61L358.4,75.24c1.92-7.82-4.74-14.11-12.44-11.76-.37.11-1.88,3.63-1.78,3.43q-2.08,4.17-4.12,8.37c-1.36,2.79-2.72,5.59-4.05,8.39-.25.53-1.21,3.39-1.61,3.52Z"/><path class="cls-1" d="M358.68,23.7a25.86,25.86,0,0,1,4.95,14.38,27,27,0,0,1-.75,7.38,18,18,0,0,1-.49,1.78q-2.31,6.51,4-7.94Q374,25.53,370,31.18a22.15,22.15,0,0,1-1.62,1.87c-2.63,2.9-4.18,8.29-5.89,11.8q-2.06,4.18-4.06,8.39c-.47,1-.9,2.73-1.61,3.52,3.18-3.5,5.09-7.7,7.17-11.9,3.34-6.75,7.3-13.58,9.76-20.73A26.54,26.54,0,0,0,370.24,0c.51.71-5.33,10.62-5.9,11.79-1.37,2.8-2.72,5.59-4.06,8.4-.21.46-1.82,3.21-1.6,3.51Z"/><path class="cls-1" d="M0,666.13V579.36H22.37a50.54,50.54,0,0,1,23.45,5.49,43,43,0,0,1,17,15.53,41.18,41.18,0,0,1,6.33,22.43,40.83,40.83,0,0,1-6.33,22.36,43.13,43.13,0,0,1-17,15.47,50.54,50.54,0,0,1-23.45,5.49H13.8v-1.79h8.31A37.2,37.2,0,0,0,37,661.28a38.5,38.5,0,0,0,12.39-8.5,39.22,39.22,0,0,0,8.38-13.23,47.32,47.32,0,0,0,0-33.48A38.51,38.51,0,0,0,37,584.28a36.43,36.43,0,0,0-14.89-3.13H7.67v85Z"/><path class="cls-1" d="M82.68,666.13V579.36h7.67v86.77Z"/><path class="cls-1" d="M132.27,666.13V628.82L103,579.36h8.44l28.5,48.3v38.47Zm37.32-86.77-25.43,43.45-1-1.79,24.41-41.66Z"/><path class="cls-1" d="M222.24,639H190.42l-10.61,27.09h-2.05l35-89,34.89,89h-8l-29.91-76.29-18.65,47.41H221.6Z"/><path class="cls-1" d="M267.74,625.75l51.63,40.38h-2.82l-48.81-38.21v38.21h-7.67V579.36h22.87a43.46,43.46,0,0,1,11.51,1.47A33.86,33.86,0,0,1,304,585a19.57,19.57,0,0,1,6.65,7.35,22.22,22.22,0,0,1,2.42,10.48,20.67,20.67,0,0,1-4.28,13.23A24.23,24.23,0,0,1,297.9,624a43.39,43.39,0,0,1-15,2.43h-4.47l-2.3-1.79h5.62q11.38,0,17.13-5.56t5.75-16.17q0-10.61-5.75-16.16t-17.13-5.56H267.74Z"/><path class="cls-1" d="M381,666.13v-85h-27.6v-1.79h62.88v1.79H388.63v85Z"/><path class="cls-1" d="M429.27,666.13V610h6.9v21.6a35.4,35.4,0,0,1,6.65-14.57q6.39-8.17,16-8.18v5.88q-10.35,0-16.49,7.6t-6.13,19.36v24.41Z"/><path class="cls-1" d="M504.8,645.94V630.09c0-2.38-.05-4-.13-4.85a9.37,9.37,0,0,1-3.83,4.34,86.17,86.17,0,0,1-9.72,4.73q-8,3.59-11.88,7.41a13.74,13.74,0,0,0-3.84,10.16q0,6.33,3.65,9.84a12.75,12.75,0,0,0,9.26,3.52q7.54,0,13-6.14l.64,1.41Q496.37,667,486.14,667q-8.06,0-13-4t-5-11.25a13.76,13.76,0,0,1,.64-4.28,16.21,16.21,0,0,1,1.53-3.45,12,12,0,0,1,2.69-2.94,41.49,41.49,0,0,1,3.32-2.49,27.69,27.69,0,0,1,4.34-2.24c1.88-.81,3.47-1.47,4.8-2l5.56-2.17q8.29-3.07,10.86-5a6.89,6.89,0,0,0,2.55-5.88,10.24,10.24,0,0,0-3-7.66q-3-2.94-8.84-2.94a22.78,22.78,0,0,0-6.36.89,17.84,17.84,0,0,0-5,2.24,36.72,36.72,0,0,0-3.5,2.68,14.65,14.65,0,0,0-2.16,2.24l-.77.89V615a8.31,8.31,0,0,1,.77-.64c.34-.25,1.08-.72,2.23-1.4a30.87,30.87,0,0,1,3.63-1.85,25,25,0,0,1,5.15-1.47,34.34,34.34,0,0,1,6.69-.64,24.36,24.36,0,0,1,8.73,1.4,15.06,15.06,0,0,1,5.47,3.33,13.15,13.15,0,0,1,2.87,4.72,21.1,21.1,0,0,1,1.21,4.54,37.7,37.7,0,0,1,.19,3.9V650q0,14.31,5.62,14.31a5.89,5.89,0,0,0,1.73-.25,9.09,9.09,0,0,0,1.34-.51l.38-.26v1.41c-.85.93-2.34,1.4-4.47,1.4q-4.86,0-8.18-4.79T504.8,645.94Z"/><path class="cls-1" d="M553.62,667.54,528.31,610h7.54l21.47,48.82ZM578.79,610l-18.14,41.28-1-2.3,17.26-39Z"/><path class="cls-1" d="M613.49,610.8a15.42,15.42,0,0,0-13.57,7.41q-4.89,7.41-4.9,19.93a41.44,41.44,0,0,0,1.15,9.85,32.38,32.38,0,0,0,3.44,8.69,16.9,16.9,0,0,0,15.15,8.56,23.19,23.19,0,0,0,7.2-1.09,17.45,17.45,0,0,0,5.42-2.68,41.48,41.48,0,0,0,3.56-3.13,13.3,13.3,0,0,0,2.17-2.69l.51-1.15v4.86a8.29,8.29,0,0,1-.71.89,15.25,15.25,0,0,1-2.17,1.79,26.12,26.12,0,0,1-3.7,2.3,25.1,25.1,0,0,1-5.31,1.86,29.06,29.06,0,0,1-7,.83,26.4,26.4,0,0,1-14.63-4.09,25.32,25.32,0,0,1-9.39-10.55,32.68,32.68,0,0,1-3.07-14.25q0-12.39,7.22-20.76A23.42,23.42,0,0,1,613.42,609q10.74,0,17.32,7.66t7.09,19.56H601v-1.79h29.39q-.63-11-4.77-17.32T613.49,610.8Z"/><path class="cls-1" d="M651.25,666.13V579.36h6.9v86.77Z"/><path class="cls-1" d="M672.21,660.76v-4.6c.17.18.45.45.83.83a24.15,24.15,0,0,0,2.11,1.79,33.27,33.27,0,0,0,3.19,2.24,32.33,32.33,0,0,0,4.22,2.11,25.94,25.94,0,0,0,5.24,1.6l-.64,1.91a33,33,0,0,1-8.37-2,17.48,17.48,0,0,1-5.17-2.75Zm43.58-9.07a13.24,13.24,0,0,1-5.37,10.8q-5.37,4.29-16.1,4.54l.51-1.79q7.15-.39,10.93-3.64a9.71,9.71,0,0,0,3.77-7.48,8.05,8.05,0,0,0-1.15-4,13,13,0,0,0-2.62-3.26,25.52,25.52,0,0,0-4.28-2.81c-1.88-1-3.43-1.81-4.67-2.36s-3-1.3-5.3-2.24q-9.72-4-14.06-7.41a11.14,11.14,0,0,1-4.34-9.2,11.33,11.33,0,0,1,5.75-10.29q5.75-3.51,14.31-3.51a40.13,40.13,0,0,1,5.88.44,30.45,30.45,0,0,1,4.85,1.09,35.92,35.92,0,0,1,3.46,1.34c1,.47,1.78.83,2.3,1.09l.76.51v4.22a10.25,10.25,0,0,0-.83-.71c-.38-.29-1.15-.85-2.3-1.66a24,24,0,0,0-3.64-2.11,29.57,29.57,0,0,0-4.86-1.66,23.26,23.26,0,0,0-5.88-.76,20.52,20.52,0,0,0-10.35,2.55,8,8,0,0,0-4.47,7.29,7.22,7.22,0,0,0,3.26,6.07q3.25,2.35,11.69,5.68l.13.13h.25v.13h.26l.13.13h.13q10.6,4.22,14.44,6.77Q715.79,644.41,715.79,651.69Z"/><path class="cls-1" d="M130.46,709.47H117.81l-4.22,10.76h-.81l13.92-35.35,13.87,35.35h-3.2l-11.89-30.32-7.42,18.85H130.2Z"/><path class="cls-1" d="M155.19,718.1v-1.83l.33.33a8.47,8.47,0,0,0,.84.71,12.09,12.09,0,0,0,1.27.89,13.06,13.06,0,0,0,1.68.84,10.21,10.21,0,0,0,2.08.64l-.26.76a13.34,13.34,0,0,1-3.32-.79,7,7,0,0,1-2.06-1.09Zm17.32-3.6a5.28,5.28,0,0,1-2.13,4.29c-1.42,1.13-3.56,1.73-6.4,1.8l.2-.71a7.09,7.09,0,0,0,4.35-1.45,3.86,3.86,0,0,0,1.49-3,3.21,3.21,0,0,0-.45-1.6,5.29,5.29,0,0,0-1-1.29,9.36,9.36,0,0,0-1.71-1.12c-.74-.41-1.36-.72-1.85-.94s-1.19-.52-2.11-.89a23.72,23.72,0,0,1-5.58-3,4.4,4.4,0,0,1-1.73-3.65,4.5,4.5,0,0,1,2.28-4.09,10.76,10.76,0,0,1,5.69-1.4,15.37,15.37,0,0,1,2.34.18,12,12,0,0,1,1.93.43c.51.17,1,.35,1.37.53s.71.33.91.44l.31.2V701l-.33-.28-.92-.66a8.55,8.55,0,0,0-1.44-.83,11,11,0,0,0-1.93-.66,9,9,0,0,0-2.34-.31,8.08,8.08,0,0,0-4.11,1,3.17,3.17,0,0,0-1.78,2.89,2.89,2.89,0,0,0,1.29,2.42,23.85,23.85,0,0,0,4.65,2.26l.05,0h.1v0h.11l.05.05h.05a35.46,35.46,0,0,1,5.74,2.69A5.67,5.67,0,0,1,172.51,714.5Z"/><path class="cls-1" d="M180.79,692.7a2.08,2.08,0,0,1-3.55-1.47,2,2,0,0,1,.6-1.47,2.09,2.09,0,0,1,3.56,1.47A2,2,0,0,1,180.79,692.7ZM178,720.23V697.94h2.74v22.29Z"/><path class="cls-1" d="M206.29,706.27a7.58,7.58,0,0,1-2.45,5.94,12.27,12.27,0,0,1-6.55,2.79c-.2,0-.58.09-1.12.16l-1.38.17c-.38,0-.84.13-1.38.23a10.87,10.87,0,0,0-1.38.33l-1.1.38a2.34,2.34,0,0,0-.82.49.87.87,0,0,0-.28.63c0,.54.64,1,1.92,1.37a42.32,42.32,0,0,0,4.64,1c1.83.3,3.65.66,5.47,1.06a13.64,13.64,0,0,1,4.65,1.91,3.81,3.81,0,0,1,1.91,3.22,4.26,4.26,0,0,1-1.63,3.23,11.07,11.07,0,0,1-4.27,2.23,19.78,19.78,0,0,1-5.7.79,20,20,0,0,1-5.73-.79,11,11,0,0,1-4.28-2.21,4.18,4.18,0,0,1-1.6-3.19,3.81,3.81,0,0,1,.92-2.47,7.32,7.32,0,0,1,2.59-1.95l1.83.4a4.55,4.55,0,0,0-2.7,4,4.49,4.49,0,0,0,2.62,4,14.17,14.17,0,0,0,12.69,0,4.49,4.49,0,0,0,2.62-4,3.51,3.51,0,0,0-1-2.54,6.91,6.91,0,0,0-2.7-1.66,31.28,31.28,0,0,0-3.64-1c-1.33-.27-2.66-.49-4-.66s-2.57-.36-3.67-.58a10.87,10.87,0,0,1-2.7-.86c-.7-.36-1-.81-1-1.35a1.32,1.32,0,0,1,.61-1.07,7,7,0,0,1,2.32-.86,30,30,0,0,1,4.55-.61,9.37,9.37,0,0,1-5.32-3,8.53,8.53,0,0,1,.69-11.83,9.78,9.78,0,0,1,6.82-2.49c.44,0,.9,0,1.38.05l-.26.71c-.34,0-.71,0-1.11,0a5.92,5.92,0,0,0-4.91,2.13,11.11,11.11,0,0,0,0,11.81,6.71,6.71,0,0,0,9.86,0,9.2,9.2,0,0,0,1.72-5.91c0-3.42-1-5.78-3.05-7.06l.31-1a9.5,9.5,0,0,1,3.57,2.49,4.33,4.33,0,0,0,1.41-3.61h2.84a3.63,3.63,0,0,1-1.12,2.52,6.6,6.6,0,0,1-2.61,1.7A8.19,8.19,0,0,1,206.29,706.27Z"/><path class="cls-1" d="M215.43,697.94v22.29h-2.74V697.94Zm13.31,22.29V706c0-.67,0-1.27-.05-1.8s-.1-1.11-.21-1.75a5.44,5.44,0,0,0-.5-1.65,7.92,7.92,0,0,0-.87-1.32,2.9,2.9,0,0,0-1.34-.94,5.43,5.43,0,0,0-1.91-.31q-3.6,0-6,3.56v-1a7.78,7.78,0,0,1,6.45-3.25,6.33,6.33,0,0,1,5.31,2.41,9.72,9.72,0,0,1,1.85,6.07v14.22Z"/><path class="cls-1" d="M251.09,712.21v-6.3c0-.95,0-1.59-.05-1.93a3.8,3.8,0,0,1-1.53,1.73,34.42,34.42,0,0,1-3.86,1.88,15.91,15.91,0,0,0-4.72,2.94,5.47,5.47,0,0,0-1.53,4,5.19,5.19,0,0,0,1.45,3.91,5.1,5.1,0,0,0,3.68,1.4,6.71,6.71,0,0,0,5.18-2.44l.26.56a7.86,7.86,0,0,1-6.3,2.59,8.08,8.08,0,0,1-5.18-1.57,5.38,5.38,0,0,1-2-4.47,5.57,5.57,0,0,1,.25-1.71,6.43,6.43,0,0,1,.61-1.37,4.92,4.92,0,0,1,1.07-1.17q.7-.57,1.32-1a11.3,11.3,0,0,1,1.73-.88c.74-.33,1.38-.59,1.9-.79l2.21-.86a20.15,20.15,0,0,0,4.32-2,2.72,2.72,0,0,0,1-2.33,4.08,4.08,0,0,0-1.18-3.05,4.84,4.84,0,0,0-3.52-1.17,8.84,8.84,0,0,0-2.53.36,6.69,6.69,0,0,0-2,.89,14.18,14.18,0,0,0-1.4,1.06,5.45,5.45,0,0,0-.85.89l-.31.36v-1.88l.3-.26c.14-.1.43-.28.89-.55a11.48,11.48,0,0,1,1.44-.74,9.79,9.79,0,0,1,2.05-.58,13.71,13.71,0,0,1,2.66-.26,9.67,9.67,0,0,1,3.47.56,5.92,5.92,0,0,1,2.17,1.32,5.21,5.21,0,0,1,1.14,1.88,8.26,8.26,0,0,1,.48,1.8,14.41,14.41,0,0,1,.08,1.55v9.19c0,3.8.74,5.69,2.23,5.69a2.26,2.26,0,0,0,.69-.1,3.33,3.33,0,0,0,.53-.2l.16-.1v.56a2.36,2.36,0,0,1-1.78.55,3.86,3.86,0,0,1-3.25-1.9Q251.09,716.43,251.09,712.21Z"/><path class="cls-1" d="M264.39,711.24V698.65h-3.81v-.71h3.81v-6.15l2.75-2v8.13h6.45v.71h-6.45v14c0,.64,0,1.16,0,1.54s0,.91.1,1.55a5.55,5.55,0,0,0,.31,1.55,7.3,7.3,0,0,0,.61,1.22,2.29,2.29,0,0,0,1,.94,3.39,3.39,0,0,0,1.45.31,6,6,0,0,0,1-.08c.3,0,.52-.09.66-.13l.2,0v.71a6.48,6.48,0,0,1-1.83.26,8.3,8.3,0,0,1-2.16-.26,5.88,5.88,0,0,1-1.6-.66,3.59,3.59,0,0,1-1.12-1.11A8.05,8.05,0,0,1,265,717a7.13,7.13,0,0,1-.41-1.72c-.08-.68-.14-1.31-.18-1.91S264.39,712.06,264.39,711.24Z"/><path class="cls-1" d="M280.8,697.94v14.22c0,.81,0,1.53.08,2.16a10.69,10.69,0,0,0,.38,2,6,6,0,0,0,.78,1.83,3.66,3.66,0,0,0,1.43,1.2,4.76,4.76,0,0,0,2.2.48,6.9,6.9,0,0,0,6-3.51v1a7.59,7.59,0,0,1-6.4,3.2,6.39,6.39,0,0,1-5.36-2.39,9.52,9.52,0,0,1-1.85-6V697.94Zm13.31,22.29V697.94h2.74v22.29Z"/><path class="cls-1" d="M303.1,720.23V697.94h2.74v8.58a14.14,14.14,0,0,1,2.64-5.79,7.75,7.75,0,0,1,6.35-3.25v2.34a8,8,0,0,0-6.55,3,11.83,11.83,0,0,0-2.44,7.69v9.7Z"/><path class="cls-1" d="M328.77,698.24a6.11,6.11,0,0,0-5.39,3,14.15,14.15,0,0,0-1.95,7.92,16.17,16.17,0,0,0,.46,3.91,13,13,0,0,0,1.36,3.46,6.73,6.73,0,0,0,2.46,2.48,6.88,6.88,0,0,0,3.57.92,9.25,9.25,0,0,0,2.86-.43,7.07,7.07,0,0,0,2.15-1.07,16.8,16.8,0,0,0,1.42-1.24,5.62,5.62,0,0,0,.86-1.07l.2-.46v1.93c-.07.1-.16.22-.28.36a8,8,0,0,1-.86.71,11,11,0,0,1-1.47.91,10.14,10.14,0,0,1-2.11.74,11.49,11.49,0,0,1-2.8.33,10.39,10.39,0,0,1-5.81-1.63,10.14,10.14,0,0,1-3.74-4.18,13.07,13.07,0,0,1-1.21-5.67,12.16,12.16,0,0,1,2.87-8.25,9.3,9.3,0,0,1,7.39-3.33,8.65,8.65,0,0,1,6.88,3.05,12.4,12.4,0,0,1,2.82,7.77H323.82v-.71H335.5a13.94,13.94,0,0,0-1.9-6.88A5.39,5.39,0,0,0,328.77,698.24Z"/><path class="cls-1" d="M356.07,709.16a16.29,16.29,0,0,0,.86,5.46,8.73,8.73,0,0,0,2.49,3.79l-.35,1.11a10.36,10.36,0,0,1-4.32-4.14,12.07,12.07,0,0,1-1.62-6.22,11.8,11.8,0,0,1,3.07-8.25,10.19,10.19,0,0,1,15.16,0,11.88,11.88,0,0,1,3.05,8.25,11.51,11.51,0,0,1-3.05,8.15,9.91,9.91,0,0,1-7.57,3.28,11.24,11.24,0,0,1-2.13-.2l.2-.66a11.37,11.37,0,0,0,1.93.15,6.55,6.55,0,0,0,5.64-3,13.2,13.2,0,0,0,2.08-7.75,13.71,13.71,0,0,0-2.08-7.85,6.75,6.75,0,0,0-11.3,0A13.82,13.82,0,0,0,356.07,709.16Z"/><path class="cls-1" d="M381.77,720.23V698.65H378v-.71h3.81v-3.1q0-9.55,6.91-9.55a10.29,10.29,0,0,1,1.93.2,11,11,0,0,1,1.57.41l.56.25v1.58a2.68,2.68,0,0,0-.48-.48,7.15,7.15,0,0,0-1.42-.77,5.56,5.56,0,0,0-2.26-.48q-4.06,0-4.07,6.35v5.59h6.71v.71h-6.71v21.58Z"/><path class="cls-1" d="M416.18,698.24a6.11,6.11,0,0,0-5.39,3,14.15,14.15,0,0,0-2,7.92,16.17,16.17,0,0,0,.46,3.91,13,13,0,0,0,1.36,3.46,6.73,6.73,0,0,0,2.46,2.48,6.88,6.88,0,0,0,3.57.92,9.25,9.25,0,0,0,2.86-.43,7.07,7.07,0,0,0,2.15-1.07,16.8,16.8,0,0,0,1.42-1.24,5.62,5.62,0,0,0,.86-1.07l.2-.46v1.93c-.07.1-.16.22-.28.36a7.08,7.08,0,0,1-.86.71,11,11,0,0,1-1.47.91,10.14,10.14,0,0,1-2.11.74,11.49,11.49,0,0,1-2.8.33,10.39,10.39,0,0,1-5.81-1.63,10.14,10.14,0,0,1-3.74-4.18,13.07,13.07,0,0,1-1.21-5.67,12.16,12.16,0,0,1,2.87-8.25,9.3,9.3,0,0,1,7.39-3.33,8.65,8.65,0,0,1,6.88,3.05,12.4,12.4,0,0,1,2.82,7.77H411.23v-.71h11.68a13.94,13.94,0,0,0-1.9-6.88A5.39,5.39,0,0,0,416.18,698.24Z"/><path class="cls-1" d="M446.38,720.23l-17.12-22.29h3.4l6.86,8.94,6.86-8.94h.91L440,707.49l9.8,12.74Zm-17.07,0,7-9.09.46.61-6.5,8.48Z"/><path class="cls-1" d="M455.72,709.11a14.37,14.37,0,0,0,.89,5.23,8.65,8.65,0,0,0,2.56,3.66l-.4,1.32a10.48,10.48,0,0,1-4.37-4.06,11.72,11.72,0,0,1-1.62-6.15,11.43,11.43,0,0,1,3.22-8.23,10.61,10.61,0,0,1,7.95-3.35,15.22,15.22,0,0,1,2.46.2,10.35,10.35,0,0,1,2,.51c.51.21.95.41,1.34.61a5,5,0,0,1,.84.51l.26.2v1.93a3.62,3.62,0,0,0-.23-.33,9.22,9.22,0,0,0-.79-.79,9.09,9.09,0,0,0-1.32-1,8.25,8.25,0,0,0-1.93-.78,9.11,9.11,0,0,0-2.59-.36,7,7,0,0,0-6,3A13,13,0,0,0,455.72,709.11Zm8.84,10.77a8.62,8.62,0,0,0,2.54-.36,6.6,6.6,0,0,0,1.9-.86,10.08,10.08,0,0,0,1.27-1,5.68,5.68,0,0,0,.79-.86l.2-.35v1.93l-.28.25a5.86,5.86,0,0,1-.83.53,11.15,11.15,0,0,1-1.43.69,10.63,10.63,0,0,1-2,.53,14.45,14.45,0,0,1-2.57.23,12.1,12.1,0,0,1-2.89-.36l.25-.86A9.25,9.25,0,0,0,464.56,719.88Z"/><path class="cls-1" d="M486.07,698.24a6.11,6.11,0,0,0-5.39,3,14.15,14.15,0,0,0-1.95,7.92,16.68,16.68,0,0,0,.45,3.91,13,13,0,0,0,1.37,3.46A6.73,6.73,0,0,0,483,719a6.88,6.88,0,0,0,3.57.92,9.25,9.25,0,0,0,2.86-.43,7.07,7.07,0,0,0,2.15-1.07,15.16,15.16,0,0,0,1.41-1.24,5.36,5.36,0,0,0,.87-1.07l.2-.46v1.93c-.07.1-.16.22-.28.36a8,8,0,0,1-.86.71,10.47,10.47,0,0,1-1.48.91,9.93,9.93,0,0,1-2.11.74,11.47,11.47,0,0,1-2.79.33,10.39,10.39,0,0,1-5.81-1.63,10.14,10.14,0,0,1-3.74-4.18,13.08,13.08,0,0,1-1.22-5.67,12.21,12.21,0,0,1,2.87-8.25,9.32,9.32,0,0,1,7.39-3.33,8.65,8.65,0,0,1,6.89,3.05,12.34,12.34,0,0,1,2.81,7.77H481.12v-.71H492.8a13.94,13.94,0,0,0-1.9-6.88A5.41,5.41,0,0,0,486.07,698.24Z"/><path class="cls-1" d="M501.08,720.23V685.75h2.74v34.48Z"/><path class="cls-1" d="M510.68,720.23V685.75h2.74v34.48Z"/><path class="cls-1" d="M529.14,698.24a6.11,6.11,0,0,0-5.39,3,14.15,14.15,0,0,0-2,7.92,16.68,16.68,0,0,0,.45,3.91,13,13,0,0,0,1.37,3.46,6.73,6.73,0,0,0,2.46,2.48,6.88,6.88,0,0,0,3.57.92,9.25,9.25,0,0,0,2.86-.43,7.07,7.07,0,0,0,2.15-1.07,16.8,16.8,0,0,0,1.42-1.24,5.62,5.62,0,0,0,.86-1.07l.2-.46v1.93c-.07.1-.16.22-.28.36a8,8,0,0,1-.86.71,10.47,10.47,0,0,1-1.48.91,10,10,0,0,1-2.1.74,11.61,11.61,0,0,1-2.8.33,10.39,10.39,0,0,1-5.81-1.63,10.14,10.14,0,0,1-3.74-4.18,13.08,13.08,0,0,1-1.22-5.67,12.21,12.21,0,0,1,2.87-8.25,9.32,9.32,0,0,1,7.39-3.33,8.65,8.65,0,0,1,6.89,3.05,12.34,12.34,0,0,1,2.81,7.77H524.19v-.71h11.68a13.94,13.94,0,0,0-1.9-6.88A5.41,5.41,0,0,0,529.14,698.24Z"/><path class="cls-1" d="M546.58,697.94v22.29h-2.74V697.94Zm13.31,22.29V706c0-.67,0-1.27,0-1.8s-.1-1.11-.2-1.75a5.17,5.17,0,0,0-.51-1.65,7.85,7.85,0,0,0-.86-1.32,2.93,2.93,0,0,0-1.35-.94,5.37,5.37,0,0,0-1.9-.31q-3.62,0-6,3.56v-1a7.78,7.78,0,0,1,6.45-3.25,6.32,6.32,0,0,1,5.31,2.41,9.67,9.67,0,0,1,1.86,6.07v14.22Z"/><path class="cls-1" d="M570.56,709.11a14.16,14.16,0,0,0,.89,5.23A8.56,8.56,0,0,0,574,718l-.4,1.32a10.48,10.48,0,0,1-4.37-4.06,11.63,11.63,0,0,1-1.63-6.15,11.43,11.43,0,0,1,3.23-8.23,10.61,10.61,0,0,1,7.95-3.35,15.31,15.31,0,0,1,2.46.2,10.56,10.56,0,0,1,2,.51c.5.21.95.41,1.34.61a5,5,0,0,1,.84.51l.25.2v1.93a3,3,0,0,0-.22-.33,11.09,11.09,0,0,0-.79-.79,9.09,9.09,0,0,0-1.32-1,8.44,8.44,0,0,0-1.93-.78,9.16,9.16,0,0,0-2.59-.36,7,7,0,0,0-6,3A13,13,0,0,0,570.56,709.11Zm8.84,10.77a8.62,8.62,0,0,0,2.54-.36,6.73,6.73,0,0,0,1.9-.86,10.86,10.86,0,0,0,1.27-1,5.68,5.68,0,0,0,.79-.86l.2-.35v1.93l-.28.25a7,7,0,0,1-.84.53,9.42,9.42,0,0,1-3.43,1.22,14.34,14.34,0,0,1-2.56.23,12.24,12.24,0,0,1-2.9-.36l.26-.86A9.25,9.25,0,0,0,579.4,719.88Z"/><path class="cls-1" d="M600.91,698.24a6.13,6.13,0,0,0-5.4,3,14.24,14.24,0,0,0-1.94,7.92A16.68,16.68,0,0,0,594,713a13,13,0,0,0,1.37,3.46,6.78,6.78,0,0,0,2.45,2.48,6.88,6.88,0,0,0,3.57.92,9.16,9.16,0,0,0,2.86-.43,6.84,6.84,0,0,0,2.15-1.07,15.36,15.36,0,0,0,1.42-1.24,5.25,5.25,0,0,0,.86-1.07l.21-.46v1.93c-.07.1-.16.22-.28.36a7.49,7.49,0,0,1-.87.71,10.36,10.36,0,0,1-1.47.91,10.14,10.14,0,0,1-2.11.74,11.47,11.47,0,0,1-2.79.33,10.45,10.45,0,0,1-5.82-1.63,10.12,10.12,0,0,1-3.73-4.18,13.08,13.08,0,0,1-1.22-5.67,12.21,12.21,0,0,1,2.87-8.25,9.31,9.31,0,0,1,7.39-3.33,8.63,8.63,0,0,1,6.88,3.05,12.29,12.29,0,0,1,2.82,7.77H596v-.71h11.69a14,14,0,0,0-1.9-6.88A5.41,5.41,0,0,0,600.91,698.24Z"/></g></g></svg>