<svg xmlns="http://www.w3.org/2000/svg" viewBox="0 0 272.28 535.66"><defs><style>.cls-1{fill:#6f9fe8;}</style></defs><g id="Layer_2" data-name="Layer 2"><g id="Layer_1-2" data-name="Layer 1"><path class="cls-1" d="M151.7,464.56a27.92,27.92,0,0,0,13.7,7.49,27.82,27.82,0,0,0-21.2,21.2,27.82,27.82,0,0,0-21.2-21.2,27.78,27.78,0,0,0,21.2-21.2A28,28,0,0,0,151.7,464.56Z"/><path class="cls-1" d="M151.7,507a28,28,0,0,0,13.7,7.5,27.78,27.78,0,0,0-21.2,21.2,27.78,27.78,0,0,0-21.2-21.2,27.81,27.81,0,0,0,21.2-21.21A28,28,0,0,0,151.7,507Z"/><path class="cls-1" d="M222.13,112.39c-11.24,24.43-17.21,50.32-15.49,77.31,1.85,29.07,13.8,54.8,24.91,81.24C242,295.78,249,321,247.8,348.14a158.27,158.27,0,0,1-6.15,37.42c-1.88,6.44-4.35,12.52-6.82,18.75q29.68-58.8,17.64-36.39-1.65,3-3.47,5.92c-1.85,3-3.83,5.85-5.86,8.7-5.18,7.26-8.51,16.82-12.41,24.82s-6.8,17.89-11.92,25.07c6.73-9.44,12.11-19.48,17.27-29.84,8.47-17,17.46-34,24.57-51.61a158.89,158.89,0,0,0,11.58-63.21c-.59-23.94-7.65-46.18-16.91-68.08-9.45-22.35-19.82-44.42-23.21-68.69-3.81-27.25-.27-56.47,11.28-81.57-.31.67,2.83-5.12,1-2.6-2.29,3.21-4,8-5.74,11.39-5.61,11.34-11.27,22.68-16.56,34.17Z"/><path class="cls-1" d="M15.78,179.61C4.54,204-1.43,229.92.29,256.92c1.85,29.06,13.8,54.79,24.92,81.23,10.44,24.85,17.4,50,16.24,77.21a158.18,158.18,0,0,1-6.15,37.41c-1.88,6.44-4.35,12.53-6.82,18.75q29.7-58.8,17.64-36.38c-1.1,2-2.26,4-3.47,5.92-1.85,3-3.82,5.85-5.85,8.69-5.18,7.27-8.52,16.82-12.42,24.83s-6.8,17.88-11.92,25.06c6.73-9.43,12.11-19.48,17.27-29.83,8.47-17,17.46-34,24.58-51.62A158.87,158.87,0,0,0,65.88,355C65.29,331,58.23,308.8,49,286.91c-9.45-22.35-19.82-44.42-23.21-68.69C22,191,25.49,161.75,37,136.65c-.3.67,2.83-5.13,1-2.61-2.29,3.21-4,8-5.74,11.39-5.61,11.34-11.27,22.68-16.56,34.18Z"/><path class="cls-1" d="M193.92,353.92q-1.75,4.08-3.61,8.16c-.08.21-.21.49-.37.86-7.43,16.48-15.71,32.68-23.92,48.73A191.71,191.71,0,0,1,155.34,430q-3.3,6.81-6.71,13.57v0c-.25.4-3.76,6.92-3.76,7.26a568.5,568.5,0,0,1-41.55-81.27c-41.25-100-53.76-211.26-35.2-317.85.41-2.41,2.32-5.16,3.38-7.39Q75.71,35.47,80,26.67T88.7,9.06c.59-1.16,3.43-5.41,3.74-7.22A569,569,0,0,0,84,92.74c-1.21,107.17,27.88,214.12,83.62,305.64a60.3,60.3,0,0,1,6.71-11.74l1.42-1.86a148.7,148.7,0,0,0,4.93-36.65c.25-29.76-10.19-56.16-22.58-82.72-12.9-27.64-24-55-23.25-86.11.89-36.94,18.24-69,34.52-101.27q-4.86,10.17-14.88,31.66Q163.34,92,171.85,74.11c0,.1-.08.22-.13.32-.49,1.12-.95,2.26-1.37,3.42-.62,1.59-1.23,3.17-1.8,4.77-1.22,3.54-2.32,7.12-3.27,10.74a145.1,145.1,0,0,0-3.65,19.2,142.77,142.77,0,0,0,.83,40.29c4.11,25,15.87,47.3,26.2,70.08,9.77,21.48,17.1,43.45,17.75,67.23A151.7,151.7,0,0,1,193.92,353.92Z"/><path class="cls-1" d="M176.3,64.5c.15.06-3.23,7-3.59,7.82-.27.6-.57,1.19-.86,1.79q-8.5,17.88-17.36,35.58,10-21.48,14.88-31.66a.41.41,0,0,0,.09-.19q4.29-9,4.49-9C175,66.8,176.19,64.5,176.3,64.5Z"/><path class="cls-1" d="M148.63,443.57a.13.13,0,0,1,0,.08.1.1,0,0,0,0-.06Z"/><path class="cls-1" d="M100.54,87.19C108.25,84.83,114.9,91.12,113,99c.81-3.33,3.64-7.19,5.13-10.22,2.12-4.33,4.25-8.66,6.25-13l.53-1.16L113.76,97.37a24.63,24.63,0,0,1,20.13-13A23.37,23.37,0,0,0,135.67,81q2.09-4.17,4.12-8.36c1.36-2.8,2.72-5.59,4.05-8.4.2-.42,1.37-3.49,1.61-3.51a24.75,24.75,0,0,0-17.63,9.1c-2.43,3-4,6.67-5.71,10.11-3,6.17-6.09,12.34-9,18.61l11.39-23.27c1.91-7.82-4.74-14.11-12.44-11.76-.37.11-1.88,3.63-1.78,3.43q-2.08,4.17-4.12,8.37t-4.06,8.39c-.25.53-1.2,3.39-1.61,3.52Z"/><path class="cls-1" d="M124.82,23.7a25.79,25.79,0,0,1,5,14.38,27.8,27.8,0,0,1-.75,7.38c-.14.6-.3,1.2-.49,1.78q-2.31,6.51,4-7.94,7.62-13.77,3.65-8.12a24.12,24.12,0,0,1-1.62,1.87c-2.63,2.9-4.19,8.29-5.9,11.8-1.36,2.79-2.72,5.59-4,8.39-.47,1-.9,2.73-1.61,3.52,3.17-3.5,5.09-7.7,7.16-11.9,3.35-6.75,7.31-13.58,9.77-20.73A26.55,26.55,0,0,0,136.38,0c.51.71-5.32,10.62-5.9,11.79-1.36,2.8-2.72,5.59-4,8.4-.22.46-1.83,3.21-1.61,3.51Z"/></g></g></svg>